fd_11_states
version=1
nRows=43
nColumns=17
inDegrees=yes

# SIMM Motion File Header:
name fd_11_states
datacolumns 17
datarows 43
otherdata 1
range 0.030000 0.055846
endheader
time	/jointset/r_shoulder/r_shoulder_elev/value	/jointset/r_shoulder/r_shoulder_elev/speed	/jointset/r_elbow/r_elbow_flex/value	/jointset/r_elbow/r_elbow_flex/speed	/forceset/TRIlong/activation	/forceset/TRIlong/fiber_length	/forceset/TRIlat/activation	/forceset/TRIlat/fiber_length	/forceset/TRImed/activation	/forceset/TRImed/fiber_length	/forceset/BIClong/activation	/forceset/BIClong/fiber_length	/forceset/BICshort/activation	/forceset/BICshort/fiber_length	/forceset/BRA/activation	/forceset/BRA/fiber_length
      0.030000	      0.000000	      0.000000	     31.639990	    376.094653	      0.054531	      0.148249	      0.020000	      0.082798	      0.020000	      0.077791	      0.020000	      0.139365	      0.192659	      0.137093	      0.263891	      0.085403
      0.030246	      0.000001	      0.005401	     31.732322	    375.888837	      0.054409	      0.148287	      0.020000	      0.082827	      0.020000	      0.077846	      0.020088	      0.139325	      0.192138	      0.137052	      0.262745	      0.085382
      0.030491	      0.000003	      0.011057	     31.824604	    375.681968	      0.054287	      0.148326	      0.020000	      0.082861	      0.020000	      0.077882	      0.020190	      0.139285	      0.191681	      0.137010	      0.261553	      0.085361
      0.031220	      0.000019	      0.033863	     32.098245	    375.049168	      0.053925	      0.148441	      0.020000	      0.082969	      0.020000	      0.077992	      0.020465	      0.139166	      0.190339	      0.136888	      0.258067	      0.085301
      0.031745	      0.000043	      0.057906	     32.294928	    374.570434	      0.053668	      0.148524	      0.020000	      0.083055	      0.020000	      0.078075	      0.020640	      0.139080	      0.189387	      0.136800	      0.255605	      0.085258
      0.032270	      0.000080	      0.085218	     32.491357	    374.081519	      0.053413	      0.148607	      0.020000	      0.083131	      0.020000	      0.078152	      0.020799	      0.138993	      0.188447	      0.136712	      0.253181	      0.085215
      0.032794	      0.000133	      0.117409	     32.687526	    373.577568	      0.053159	      0.148690	      0.020000	      0.083212	      0.020000	      0.078234	      0.020943	      0.138906	      0.187517	      0.136624	      0.250795	      0.085173
      0.033448	      0.000225	      0.166703	     32.931634	    372.921322	      0.052847	      0.148793	      0.020000	      0.083310	      0.020000	      0.078329	      0.021104	      0.138798	      0.186375	      0.136515	      0.247873	      0.085122
      0.033960	      0.000323	      0.216087	     33.122382	    372.374773	      0.052604	      0.148873	      0.020000	      0.083389	      0.020000	      0.078415	      0.021216	      0.138713	      0.185492	      0.136429	      0.245624	      0.085081
      0.034472	      0.000447	      0.271037	     33.312845	    371.810877	      0.052364	      0.148953	      0.020000	      0.083466	      0.020000	      0.078485	      0.021318	      0.138627	      0.184620	      0.136344	      0.243409	      0.085041
      0.034984	      0.000602	      0.335645	     33.503013	    371.217353	      0.052125	      0.149033	      0.020000	      0.083544	      0.020000	      0.078565	      0.021411	      0.138542	      0.183758	      0.136258	      0.241227	      0.085001
      0.035675	      0.000867	      0.433704	     33.759060	    370.382683	      0.051806	      0.149141	      0.020000	      0.083647	      0.020000	      0.078663	      0.021523	      0.138427	      0.182610	      0.136142	      0.238334	      0.084948
      0.036193	      0.001114	      0.518573	     33.950847	    369.721377	      0.051569	      0.149222	      0.020000	      0.083726	      0.020000	      0.078752	      0.021598	      0.138340	      0.181761	      0.136055	      0.236200	      0.084908
      0.036711	      0.001406	      0.609090	     34.142288	    369.042063	      0.051334	      0.149302	      0.020000	      0.083803	      0.020000	      0.078821	      0.021666	      0.138253	      0.180921	      0.135968	      0.234097	      0.084868
      0.037229	      0.001747	      0.709276	     34.333368	    368.332654	      0.051100	      0.149383	      0.020000	      0.083881	      0.020000	      0.078901	      0.021727	      0.138166	      0.180091	      0.135881	      0.232025	      0.084828
      0.037949	      0.002311	      0.859550	     34.598023	    367.312169	      0.050780	      0.149494	      0.020000	      0.083988	      0.020000	      0.079003	      0.021804	      0.138045	      0.178955	      0.135760	      0.229198	      0.084773
      0.038470	      0.002789	      0.979300	     34.789228	    366.538782	      0.050549	      0.149574	      0.020000	      0.084066	      0.020000	      0.079091	      0.021853	      0.137957	      0.178143	      0.135672	      0.227186	      0.084733
      0.038991	      0.003332	      1.104212	     34.980025	    365.748431	      0.050321	      0.149654	      0.020000	      0.084143	      0.020000	      0.079159	      0.021897	      0.137869	      0.177341	      0.135584	      0.225203	      0.084693
      0.039512	      0.003942	      1.238111	     35.170403	    364.929605	      0.050095	      0.149734	      0.020000	      0.084220	      0.020000	      0.079239	      0.021937	      0.137781	      0.176547	      0.135496	      0.223248	      0.084653
      0.039975	      0.004544	      1.362623	     35.339228	    364.184003	      0.049895	      0.149805	      0.020000	      0.084289	      0.020000	      0.079305	      0.021970	      0.137703	      0.175850	      0.135417	      0.221535	      0.084618
      0.040221	      0.004888	      1.431172	     35.428832	    363.780034	      0.049790	      0.149843	      0.020000	      0.084325	      0.020000	      0.079342	      0.023236	      0.137661	      0.175333	      0.135375	      0.220867	      0.084600
      0.040596	      0.005443	      1.538042	     35.564889	    363.157243	      0.049630	      0.149900	      0.020000	      0.084380	      0.020000	      0.079397	      0.025407	      0.137594	      0.174506	      0.135312	      0.219932	      0.084571
      0.042403	      0.008713	      2.092024	     36.218274	    360.027996	      0.048872	      0.150175	      0.020000	      0.084650	      0.020000	      0.079670	      0.033887	      0.137261	      0.170618	      0.135006	      0.215537	      0.084434
      0.042852	      0.009684	      2.234676	     36.379731	    359.233642	      0.048686	      0.150242	      0.020000	      0.084710	      0.020000	      0.079725	      0.035571	      0.137178	      0.169676	      0.134931	      0.214476	      0.084400
      0.043427	      0.011023	      2.424703	     36.586032	    358.192525	      0.048451	      0.150329	      0.020000	      0.084793	      0.020000	      0.079808	      0.037528	      0.137071	      0.168485	      0.134833	      0.213133	      0.084356
      0.044513	      0.013857	      2.797531	     36.974074	    356.179372	      0.048012	      0.150492	      0.020000	      0.084953	      0.020000	      0.079979	      0.040695	      0.136870	      0.166276	      0.134650	      0.210648	      0.084274
      0.044940	      0.015083	      2.944683	     37.125933	    355.384523	      0.047842	      0.150556	      0.020000	      0.085011	      0.020000	      0.080027	      0.041775	      0.136792	      0.165423	      0.134578	      0.209690	      0.084242
      0.045562	      0.016983	      3.166670	     37.346585	    354.201572	      0.047596	      0.150649	      0.020000	      0.085099	      0.020000	      0.080113	      0.043203	      0.136678	      0.164195	      0.134473	      0.208312	      0.084195
      0.046351	      0.019597	      3.456924	     37.625636	    352.670677	      0.047286	      0.150766	      0.020000	      0.085212	      0.020000	      0.080242	      0.044798	      0.136534	      0.162661	      0.134339	      0.206592	      0.084136
      0.046901	      0.021551	      3.659106	     37.819114	    351.602084	      0.047073	      0.150847	      0.020000	      0.085290	      0.020000	      0.080303	      0.045780	      0.136434	      0.161609	      0.134246	      0.205414	      0.084094
      0.047450	      0.023619	      3.867712	     38.011998	    350.511873	      0.046862	      0.150928	      0.020000	      0.085367	      0.020000	      0.080381	      0.046670	      0.136334	      0.160570	      0.134153	      0.204252	      0.084053
      0.048542	      0.028072	      4.290468	     38.393532	    348.313323	      0.046447	      0.151089	      0.020000	      0.085520	      0.020000	      0.080529	      0.048198	      0.136137	      0.158543	      0.133969	      0.201987	      0.083972
      0.049060	      0.030348	      4.496551	     38.573646	    347.250245	      0.046253	      0.151164	      0.020000	      0.085593	      0.020000	      0.080610	      0.048825	      0.136044	      0.157598	      0.133881	      0.200934	      0.083934
      0.049578	      0.032730	      4.703586	     38.753207	    346.181865	      0.046060	      0.151240	      0.020000	      0.085665	      0.020000	      0.080677	      0.049397	      0.135951	      0.156664	      0.133793	      0.199893	      0.083896
      0.049966	      0.034587	      4.861094	     38.887524	    345.372202	      0.045916	      0.151297	      0.020000	      0.085719	      0.020000	      0.080731	      0.049793	      0.135881	      0.155971	      0.133727	      0.199121	      0.083867
      0.050099	      0.035237	      4.915275	     38.933403	    345.093988	      0.045868	      0.151316	      0.020000	      0.085737	      0.020000	      0.080750	      0.050280	      0.135857	      0.155775	      0.133705	      0.198835	      0.083857
      0.050232	      0.035894	      4.969607	     38.979245	    344.815149	      0.045819	      0.151335	      0.020000	      0.085756	      0.020000	      0.080768	      0.051175	      0.135833	      0.155625	      0.133682	      0.198522	      0.083848
      0.050897	      0.039287	      5.243245	     39.207899	    343.412672	      0.045576	      0.151431	      0.020000	      0.085848	      0.020000	      0.080860	      0.055327	      0.135711	      0.154885	      0.133569	      0.196973	      0.083799
      0.053167	      0.052265	      6.193933	     39.981940	    338.546053	      0.044765	      0.151761	      0.020000	      0.086165	      0.020000	      0.081160	      0.066226	      0.135277	      0.152429	      0.133180	      0.191866	      0.083635
      0.053604	      0.055015	      6.379127	     40.129871	    337.599001	      0.044612	      0.151821	      0.020000	      0.086217	      0.020000	      0.081229	      0.067863	      0.135193	      0.151969	      0.133105	      0.190913	      0.083604
      0.054042	      0.057847	      6.564421	     40.277387	    336.649311	      0.044460	      0.151882	      0.020000	      0.086276	      0.020000	      0.081286	      0.069380	      0.135109	      0.151512	      0.133029	      0.189970	      0.083573
      0.054897	      0.063615	      6.928387	     40.564389	    334.783110	      0.044165	      0.152003	      0.020000	      0.086390	      0.020000	      0.081400	      0.072031	      0.134945	      0.150633	      0.132882	      0.188156	      0.083512
      0.055846	      0.070382	      7.334719	     40.881100	    332.697271	      0.043843	      0.152137	      0.020000	      0.086517	      0.020000	      0.081530	      0.074553	      0.134763	      0.149674	      0.132717	      0.186184	      0.083445
